<?xml version="1.0" standalone="no"?><!DOCTYPE svg PUBLIC "-//W3C//DTD SVG 1.1//EN" "http://www.w3.org/Graphics/SVG/1.1/DTD/svg11.dtd"><svg class="icon" width="200px" height="200.00px" viewBox="0 0 1024 1024" version="1.1" xmlns="http://www.w3.org/2000/svg"><path d="M512 0c282.772 0 512 229.228 512 512S794.772 1024 512 1024 0 794.772 0 512 229.228 0 512 0z" fill="#B1E3FB" /><path d="M512 509.11c191.644 0 368.044 23.836 508.376 63.834C990.246 826.984 774.148 1024 512 1024 249.852 1024 33.754 826.984 3.624 572.944 143.952 532.946 320.358 509.11 512 509.11z" fill="#9BCB64" /><path d="M1.232 547.262c70.51-110.184 138.12-206.562 209.578-282.846 23.49-25.078 65.65-26.746 92.706-9.044 180.704 118.202 256.142 240.844 305.946 364.562L20.24 654.908a510.634 510.634 0 0 1-19.008-107.646z" fill="#ADD37F" /><path d="M277.87 245.128c9.24 1.822 18.046 5.274 25.646 10.242 180.704 118.202 256.142 240.844 305.946 364.562l-300.126 17.812s-20.662-39.498-70.272-99.688c-49.614-60.188 96.842-53.706 51.544-136.672-45.304-82.96-12.738-156.256-12.738-156.256z" fill="#689D38" /><path d="M480.32 634.42c56.288-163.422 125.792-330.994 308.496-534.158 3.812-4.234 7.802-7.944 11.906-11.114C935.522 181.368 1024 336.34 1024 512c0 37.016-3.968 73.104-11.432 107.894-175.95 4.406-358.398 10.732-532.248 14.526z" fill="#ADD37F" /><path d="M1012.45 620.448l-255.262 7.92c-61.782-88.18 0.838-148.876 15.81-151.208 17.176-2.69 125.186-141.534 51.036-181.43-56.85-30.59-24.194-143.224-5.86-194.13C943.118 194.958 1024 344.028 1024 512c0 37.214-4.014 73.488-11.55 108.448z" fill="#689D38" /><path d="M527.91 125.612c40.66 0 73.618 32.964 73.618 73.618 0 40.658-32.958 73.62-73.618 73.62-40.658 0-73.616-32.962-73.616-73.62 0-40.654 32.958-73.618 73.616-73.618z" fill="#FFFF00" /><path d="M501.238 281.622a0.492 0.492 0 1 1-0.004 0.984 0.492 0.492 0 0 1 0.004-0.984z" fill="#F1EAE3" /><path d="M327.718 697.838h300.15v312.992C590.636 1019.442 551.852 1024 512 1024c-64.966 0-127.098-12.128-184.28-34.198V697.838z" fill="#B1E9F1" /><path d="M327.718 697.838l30.014-129.58v129.58z" fill="#B1E3FB" /><path d="M357.732 568.258h240.124v129.58H357.732z" fill="#7FD3F9" /><path d="M627.868 697.838l-30.012-129.58v129.58z" fill="#B1E3FB" /><path d="M369.394 524.978h-0.004c-6.42 0-11.66 5.242-11.66 11.66v161.2h23.318v-161.2c0.002-6.418-5.24-11.66-11.654-11.66zM639.532 654.568c-6.414 0-11.66 5.246-11.66 11.66v344.602a508.386 508.386 0 0 0 23.32-5.988V666.228c0-6.414-5.246-11.66-11.66-11.66zM586.202 524.978h-0.01c-6.408 0-11.654 5.242-11.654 11.66v161.2h23.318v-161.2c0-6.418-5.24-11.66-11.654-11.66zM316.06 654.568c-6.414 0-11.66 5.246-11.66 11.654v313.912a507.332 507.332 0 0 0 23.318 9.666V666.222c0-6.408-5.244-11.654-11.658-11.654z" fill="#9F877E" /><path d="M802.428 933.67v-435.3c0-83.49-45.4-91.074-85.568-91.58a112.44 112.44 0 0 0-5.434-10.678 112.908 112.908 0 0 0-13.308-18.482v-0.004c48.456 0 126.14 5.694 126.14 91.55V917.74a508.22 508.22 0 0 1-21.83 15.93z" fill="#747474" /><path d="M636.124 357.744c30.964-17.88 72.804-3.404 93.44 32.33 20.62 35.734 12.236 79.206-18.72 97.082l-74.72-129.412z" fill="#606060" /><path d="M626.92 353.192h-0.006a5.7 5.7 0 0 0-2.084 7.768l77.574 134.364a5.706 5.706 0 0 0 7.776 2.08 5.706 5.706 0 0 0 2.084-7.774l-77.574-134.36a5.696 5.696 0 0 0-7.77-2.078z" fill="#424242" /><path d="M489.466 594.256l-5.764 12.288c-9.138-6.454-21.448-11.924-35.23-20.074l9.534-15.132 31.46 22.918z" fill="#FED79F" /><path d="M441.622 591.298l-18.136 90.012c-0.6 2.996-0.916 9.53-0.944 16.53h45.73c0.466-0.816 0.888-1.668 0.966-2.45l7.176-71.432-34.792-32.66z" fill="#FFDFB1" /><path d="M406.984 697.838c-1.37-42.436-1.15-79.466 19.256-94.904 1.946-1.484 20.368-14.71 22.092-16.538 23.296 13.914 41.596 19.47 48.786 35.16 6.712 33.168 5.41 56.63 1.09 76.282h-91.224z" fill="#FFDFB1" /><path d="M474.704 605.6c-23.594-3.4-27.766 43.53-25.562 92.238h41.35c1.776-49.794 0.086-95.006-15.788-92.238z" fill="#FED79F" /><path d="M517.492 532.486l1.246 9.906-5.388 5.556 9.996 20.108-0.82 3.234-8.292 1.59 0.142 6.56-0.326 2.328-4.622 0.324 3.65 1.37-0.472 4.76-3.284 1.26-0.102 5.448-1.278 4.412s-2.134 7.568-12.598 2.378c-13.652-6.772-25.952-12.064-41.19-20.03-3.224-6.112-37.986-65.622 3.784-82.27 28.374-11.306 55.28 8.776 59.554 33.066z" fill="#FFDFB1" /><path d="M465.702 528.218s-12.58 8.558-10.866 15.238c1.714 6.67 6.666 12.246 6.666 12.246l-2.406 18.696-7.682 2.176s-28.888-36.792-13.532-62.194c26.852-44.402 88.382 0.51 79.8 11.44-6.758 8.614-51.98 2.398-51.98 2.398z" fill="#424242" /><path d="M616.914 384.114c2.098 2.098-1.75 9.356-8.6 16.204-6.854 6.854-14.11 10.7-16.208 8.604-2.102-2.104 1.75-9.356 8.6-16.208 6.85-6.85 14.106-10.702 16.208-8.6z m-35.56 33.242c1.094 1.094-3.5 7.462-10.258 14.224-6.758 6.756-13.124 11.348-14.22 10.254-1.094-1.096 3.496-7.464 10.258-14.22 6.758-6.758 13.126-11.354 14.22-10.258z m17.368 65.658c1.004 1.004-3.666 7.298-10.422 14.054-6.756 6.758-13.052 11.426-14.054 10.422-1.01-1.008 3.66-7.298 10.422-14.058 6.756-6.758 13.048-11.426 14.054-10.418z m-7.278-40.352c3.02 3.016-1.136 12.048-9.26 20.176-8.132 8.128-17.166 12.272-20.18 9.262-3.016-3.02 1.136-12.052 9.258-20.18 8.132-8.126 17.166-12.276 20.182-9.258z m59.702 45.144c2.19 2.194-3.582 11.526-12.9 20.84-9.318 9.314-18.65 15.09-20.836 12.9-2.19-2.19 3.582-11.522 12.9-20.836 9.314-9.316 18.646-15.094 20.836-12.904z m-11.082-27.614c2.102 2.102-2.566 10.17-10.418 18.022-7.852 7.852-15.924 12.52-18.022 10.422-2.102-2.102 2.566-10.176 10.418-18.028 7.852-7.852 15.924-12.516 18.022-10.416z m-1.484-47.792c1.828 1.828-2.984 9.598-10.748 17.362-7.764 7.76-15.534 12.576-17.362 10.748s2.982-9.604 10.746-17.362c7.766-7.766 15.536-12.576 17.364-10.748z" fill="#DFF3FD" /><path d="M351.628 98.254c8.068 0 15.678 1.916 22.412 5.314a40.32 40.32 0 0 1 28.298-11.548c19.078 0 35.07 13.208 39.348 30.974a32 32 0 0 1 20.676 19.306 30.912 30.912 0 0 1 3.486-0.184c17.62 0 31.922 14.288 31.922 31.926 0 17.63-14.302 31.918-31.922 31.918-5.498 0-10.666-1.384-15.174-3.824-3.876 13.268-16.126 22.956-30.652 22.956a31.782 31.782 0 0 1-22.672-9.464 31.82 31.82 0 0 1-22.688 9.464 31.86 31.86 0 0 1-21.81-8.608 31.83 31.83 0 0 1-23.558 10.386 31.76 31.76 0 0 1-22.402-9.186 37.78 37.78 0 0 1-8.19 0.888c-21.01 0-38.034-17.028-38.034-38.034 0-21.004 17.024-38.034 38.034-38.034 1.14 0 2.282 0.056 3.398 0.164 2.7-24.976 23.842-44.414 49.528-44.414z" fill="#FFFFFF" /></svg>