<?xml version="1.0" standalone="no"?><!DOCTYPE svg PUBLIC "-//W3C//DTD SVG 1.1//EN" "http://www.w3.org/Graphics/SVG/1.1/DTD/svg11.dtd"><svg class="icon" width="200px" height="200.00px" viewBox="0 0 1024 1024" version="1.1" xmlns="http://www.w3.org/2000/svg"><path d="M512.01 0C794.768 0 1024 229.232 1024 512.01 1024 794.768 794.768 1024 512.01 1024 229.232 1024 0 794.768 0 512.01 0 229.232 229.232 0 512.01 0z" fill="#4EC1F5" /><path d="M647.626 127.978c6.604 0 12.816 1.582 18.324 4.356a32.88 32.88 0 0 1 23.11-9.436c15.59 0 28.658 10.784 32.156 25.298a26.178 26.178 0 0 1 16.878 15.766c0.938-0.098 1.894-0.136 2.852-0.136 14.398 0 26.08 11.662 26.08 26.08 0 14.398-11.682 26.08-26.08 26.08-4.494 0-8.712-1.134-12.386-3.126-3.184 10.842-13.186 18.754-25.044 18.754a25.974 25.974 0 0 1-18.54-7.736 25.926 25.926 0 0 1-18.52 7.736 25.98 25.98 0 0 1-17.816-7.032 26.07 26.07 0 0 1-19.262 8.478 25.88 25.88 0 0 1-18.286-7.502 31.774 31.774 0 0 1-6.7 0.722c-17.152 0-31.062-13.91-31.062-31.082 0-17.152 13.91-31.062 31.062-31.062 0.938 0 1.856 0.04 2.774 0.136 2.21-20.412 19.478-36.294 40.46-36.294z" fill="#FFFFFF" /><path d="M556.786 104.34c36.492 0 66.05 29.558 66.05 66.03 0 36.492-29.558 66.05-66.05 66.05-36.474 0-66.03-29.558-66.03-66.05 0-36.472 29.556-66.03 66.03-66.03z" fill="#FFFF00" /><path d="M1023.824 525.646H0.196C7.424 802.114 233.784 1024 512.01 1024c278.206 0 504.566-221.886 511.814-498.354z" fill="#7FD3F9" /><path d="M437.598 642.058c63.276 0 114.596 1.798 114.596 4.024s-51.32 4.044-114.596 4.044-114.576-1.816-114.576-4.044 51.3-4.024 114.576-4.024z m563.896 20.514l-0.312 1.016c-14.984 0.88-66.948 1.524-128.76 1.524-73.532 0-133.116-0.918-133.116-2.052s59.584-2.052 133.116-2.052c62.242 0 114.5 0.664 129.072 1.564z m-9.22 27.212l-1.504 3.966c-4.806 0.04-9.826 0.058-14.984 0.058-35.458 0-64.214-0.918-64.214-2.052s28.756-2.052 64.214-2.052c5.704 0.002 11.234 0.022 16.488 0.08z m-10.724 26.568a404.372 404.372 0 0 1-4.044 9.064c-61.284-0.098-110.298-2.09-110.298-4.532-0.002-2.5 51.182-4.532 114.342-4.532z m-30.594 59.31a504.22 504.22 0 0 1-4.298 6.994c-14.866 0.976-35.632 1.582-58.626 1.582-45.244 0-81.932-2.344-81.932-5.236 0-2.872 36.688-5.216 81.932-5.216 25.298 0.002 47.902 0.744 62.924 1.876z m-42.998 60.952c-1.816 2.208-3.672 4.396-5.51 6.564-50.774-0.488-86.894-1.758-86.894-3.262 0-1.544 38.778-2.852 92.404-3.302z m-64.33 65.444a527.246 527.246 0 0 1-16.566 13.558c-20.746 0.566-44.306 0.88-69.292 0.88-82.948 0-150.19-3.536-150.19-7.932 0-4.376 67.242-7.932 150.19-7.932 31.94 0 61.536 0.528 85.858 1.426z m-93.694 63.374a478.648 478.648 0 0 1-20.512 10.218c-4.318 0.02-8.694 0.02-13.128 0.02-67.008 0-121.336-2.324-121.336-5.216 0-2.892 54.328-5.216 121.336-5.216 11.662-0.002 22.954 0.076 33.64 0.194zM128.192 850.836a595.366 595.366 0 0 1-5.666-6.524c23.638-0.82 56.418-1.328 92.638-1.328 72.086 0 130.538 2.012 130.538 4.494s-58.45 4.494-130.538 4.494c-33.424-0.002-63.88-0.432-86.972-1.136z m-21.254-25.69a462.892 462.892 0 0 1-6.428-8.458c29.812-1.68 77.694-2.774 131.71-2.774 90.41 0 163.728 3.068 163.728 6.838s-73.318 6.838-163.728 6.838c-50.284-0.002-95.256-0.958-125.282-2.444z m-37.528-55.636l-2.306-3.946c21.078-1.544 66.832-2.598 119.89-2.598 73.064 0 132.276 2.012 132.276 4.494 0 2.482-59.212 4.494-132.276 4.494-51.202-0.002-95.626-1-117.584-2.444z m-41.338-89.942l-1.172-3.34c21.724-0.664 56.282-1.094 95.216-1.094 65.738 0 119.03 1.23 119.03 2.754 0 1.504-53.294 2.734-119.03 2.734-38.25 0-72.262-0.41-94.044-1.054z m-5.06-15.298c-0.546-1.758-1.036-3.536-1.562-5.294 27.37-0.938 69.254-1.544 116.218-1.544 82.44 0 149.272 1.856 149.272 4.162s-66.832 4.162-149.272 4.162c-46.066 0-87.266-0.586-114.656-1.486z m-9.044-33.152c-0.312-1.328-0.664-2.638-0.958-3.966 21.666-0.468 51.046-0.762 83.436-0.762 66.598 0 120.594 1.212 120.594 2.734 0 1.504-53.996 2.734-120.594 2.734-31.9 0.002-60.91-0.27-82.478-0.74zM561.2 788.674c69.41 0 125.672 2.97 125.672 6.622 0 3.672-56.262 6.622-125.672 6.622s-125.672-2.95-125.672-6.622c0-3.652 56.262-6.622 125.672-6.622z m194.478 40.81c33.074 0 59.876 2.324 59.876 5.216 0 2.892-26.802 5.216-59.876 5.216-33.054 0-59.876-2.324-59.876-5.216 0-2.892 26.822-5.216 59.876-5.216z m-13.558 53.254c66.148 0 119.754-2.324 119.754-5.216 0-2.872-53.606-5.216-119.754-5.216-66.128 0-119.754 2.344-119.754 5.216 0 2.892 53.626 5.216 119.754 5.216z m-512.166 6.114c36.044 0 65.268-2.012 65.268-4.494s-29.226-4.494-65.268-4.494c-36.062 0-65.288 2.012-65.288 4.494s29.226 4.494 65.288 4.494z m211.278-11.994c80.644 0 146.01 1.348 146.01 3.008s-65.366 2.988-146.01 2.988-146.01-1.328-146.01-2.988 65.366-3.008 146.01-3.008z m-66.988 50.968c49.328 0 89.316 2.012 89.316 4.494 0 2.482-39.99 4.494-89.316 4.494s-89.336-2.012-89.336-4.494c0-2.482 40.008-4.494 89.336-4.494z m180.374-92.932c38.896 0 70.406 1.348 70.406 3.008s-31.51 2.988-70.406 2.988c-38.916 0-70.446-1.328-70.446-2.988s31.53-3.008 70.446-3.008z m125.164-177.968c32.858 0 59.506 1.368 59.506 3.068s-26.646 3.068-59.506 3.068c-32.878 0-59.506-1.368-59.506-3.068s26.628-3.068 59.506-3.068z m-13.48 31.354c65.738 0 119.03-1.388 119.03-3.068 0-1.7-53.294-3.086-119.03-3.086s-119.03 1.388-119.03 3.086c0 1.68 53.292 3.068 119.03 3.068z m15.55 19.868c82.44 0 149.272-2.09 149.272-4.67 0-2.578-66.832-4.67-149.272-4.67-82.46 0-149.292 2.09-149.292 4.67 0.002 2.58 66.832 4.67 149.292 4.67z m-41.22 34.852c66.596 0 120.594-1.388 120.594-3.086 0-1.68-53.996-3.068-120.594-3.068s-120.594 1.388-120.594 3.068c0 1.698 53.998 3.086 120.594 3.086z m170.702-112.722c44.99 0 81.444-1.388 81.444-3.068 0-1.7-36.454-3.086-81.444-3.086-44.972 0-81.424 1.388-81.424 3.086 0 1.682 36.454 3.068 81.424 3.068zM135.596 703.088c32.858 0 59.506-1.23 59.506-2.734 0-1.524-26.646-2.734-59.506-2.734-32.878 0-59.526 1.212-59.526 2.734 0.002 1.504 26.648 2.734 59.526 2.734z m192.622-7.306c73.532 0 133.136 0.82 133.136 1.836 0 0.996-59.604 1.816-133.136 1.816-73.512 0-133.116-0.82-133.116-1.816 0-1.016 59.604-1.836 133.116-1.836z m-61.068 31.042c44.972 0 81.424 1.23 81.424 2.734 0 1.524-36.454 2.754-81.424 2.754-44.99 0-81.444-1.23-81.444-2.754 0-1.504 36.454-2.734 81.444-2.734z m164.452-56.614c35.458 0 64.194 0.82 64.194 1.836s-28.736 1.816-64.194 1.816c-35.476 0-64.214-0.8-64.214-1.816s28.736-1.836 64.214-1.836z" fill="#DFF5F9" /><path d="M824.542 446.898s38.934 18.226 55.168 44.99c-16.234 4.064-60.854 8.186-60.854 8.186l-25.728-18.656 31.414-34.52z" fill="#747474" /><path d="M98.792 325.874s38.934 44.874 50.852 67.594c18.384-11.37 24.322-32.996 24.048-33.796-0.274-0.822-46.768-24.616-74.9-33.798z" fill="#DFDFDF" /><path d="M149.644 400.598v-44.424l35.144 29.928 5.294 27.312z" fill="#706B67" /><path d="M803.756 491.342c-0.312-1.074 75.954 0.546 75.954 0.546v17.29H792.64l11.116-17.836z" fill="#EDE9E7" /><path d="M968.93 528.81l-165.174-0.684v-23.814h125.144z" fill="#D5CBC7" /><path d="M222.1 283.15s21.704 46.436 26.802 67.026c5.098 20.572 19.164-18.364 19.164-18.364s-34.616-42.724-45.966-48.662zM309.698 218.252s28.658 63.804 36.238 104.378c24.654-5.704 27.038-45.986 27.038-45.986s-47.042-50.284-63.276-58.392z" fill="#606060" /><path d="M317.552 226.184l-7.854-7.932s29.89 92.052 31.648 104.378c1.758 12.288 7.424 1.134 7.424 1.134s-29.694-91.114-31.218-97.58zM228.568 290.964l-6.466-7.814s31.902 92.052 33.66 104.36c1.758 12.308 7.444 1.152 7.444 1.152s-33.134-91.252-34.638-97.698z" fill="#DFDFDF" /><path d="M222.1 435.644s27.564-73.552 27.038-89.22c1.406-1.582 3.146-3.242 4.864-4.806l0.098-0.078c3.594-3.204 7.072-5.842 7.072-5.842l11.898-9.846 38.818 89.336c2.032 4.162 3.79 8.166 5.176 11.898l12.366 28.464s-2.246 4.434-5.392 9.162c0.02 0.528-0.136 0.782-0.528 0.782-6.856 10.022-17.464 20.258-19.144-8.694-20.768-8.632-56.556-21.156-82.266-21.156z" fill="#E5E5E5" /><path d="M222.1 283.15s78.416 90.314 97.326 180.08c49.758 0 27.33-139.23 27.33-139.23s-53.818-40.322-124.656-40.85zM98.792 325.874s95.724 83.808 110.864 113.014c15.14 29.206 35.418-17.856 35.418-17.856l4.064-74.626s-66.518-30.808-150.346-20.532z" fill="#FFFFFF" /><path d="M345.938 322.632s3.242 104.906-20.552 140.052c20.024 3.79 92.756 28.288 92.756 28.288l-2.11-5.802 8.596 1.856-17.582-148.178-39.618-37.86s-12.834-3.79-20.942 10.822c-1.114 1.974-0.898 6.27 0.274 12.19l-0.822-1.368z" fill="#E5E5E5" /><path d="M424.626 487.024s-46.788-206.042-114.928-268.772c43.818 9.728 141.146 43.798 199.556 155.21-2.694 22.702-7.306 88.674-84.628 113.562z" fill="#FFFFFF" /><path d="M648.778 494.388s-82.734-40.36-108.168-31.16c-19.302 0-73.356 52.454-106.88 20.532-2.168-23.248 75.524-110.298 75.524-110.298s0.82 1.66 2.188 4.59c0.002 0.002 126.632 68.846 137.336 116.336z" fill="#DFDFDF" /><path d="M675.288 356.174s-82.148-33.562-163.846 21.88c53.156 28.736 95.158 65.17 109.752 96.526 10.276-0.546 18.54 1.074 18.54 1.074s22.838-113.56 35.554-119.48z" fill="#FFFFFF" /><path d="M870.508 410.346c2.11 0.644-51.926 53.43-65.444 76.678l-16.214-1.074s-28.132-45.968-51.926-57.338c17.856-5.412 90.86-31.12 133.584-18.266z" fill="#DFDFDF" /><path d="M659.602 406.79s27.038 42.92 27.584 50.48c5.938 5.958 25.396 13.518 25.396 13.518s-2.716-33.524-14.32-42.178l-38.66-21.82z" fill="#747474" /><path d="M1006.32 541.274h-37.392v-13.694H55.07v13.694H17.68v27.37h988.64v-27.37z m-357.542-57.512c0.546-4.318 41.102-31.902 41.102-31.902l71.93 8.654 20.962 18.97 6.076 6.466-9.202 13.5-130.868-15.688z m-186.448 0l28.796-34.11 49.484 13.578 48.488-16.332 33.718 36.864h-160.486z m-126.122-20.532l9.552-24.81 47.746 11.234 7.6 31.764-64.898-18.188z m-87.616-21.646l4.748-17.29 40.204 10.96 7.776 20.298-52.728-13.968z m-138.43 13.518l-11.37-11.35s8.264-0.82 19.75-1.798c5.86-9.064 19.028-28.444 31.1-39.306 16.116-14.514 57.846 0 57.846 0l2.734 44.248c1.738 0.938 2.676 1.544 2.676 1.544l-10.256 12.074H177.814l4.766 0.782 15.102 31.296-21.684 16.254-91.798-13.928 12.308-8.694v-9.846l10.432-1.172 4.356-6.798s-0.626-7.54-0.546-13.284l-0.588-0.022z" fill="#747474" /><path d="M659.602 406.79c-1.466-0.722 61.616 10.412 77.322 21.822 0 0 60.034 35.692 51.926 57.338 0 0-20.024-28.678-58.412-15.16-12.444 1.094-17.856 0-17.856 0s-32.428-53.918-52.98-64z" fill="#BBBBBB" /><path d="M190.414 456.744c2.364-3.614 16.956-24.322 38.602-20.824 0.664-5.138 77.712 20.336 112.33 27.31 34.598 6.954 53.254 16.214 53.254 16.214h345.586l36.22 12.326v-10.354l33.464-6.564s-5.978 6.838-6.31 26.158l0.196 0.078V527.578H84.198v-35.692h105.884v-7.19l-36.786-17.152v-10.804h37.118z" fill="#BBA9A3" /><path d="M785.802 523.086H155.972v-11.994h629.83z" fill="#FFFFFF" /><path d="M803.756 502.496h-134.132v-4.826h134.132zM551.98 496.752H190.082v-4.316H551.98z" fill="#747474" /><path d="M406.908 78.084c7.424 0 14.418 1.758 20.63 4.884a37.054 37.054 0 0 1 26.022-10.608c17.542 0 32.254 12.152 36.18 28.482a29.45 29.45 0 0 1 19.028 17.758 28.62 28.62 0 0 1 3.204-0.176c16.214 0 29.362 13.148 29.362 29.362s-13.148 29.362-29.362 29.362c-5.06 0-9.806-1.27-13.948-3.516-3.576 12.21-14.828 21.098-28.19 21.098a29.248 29.248 0 0 1-20.864-8.694 29.248 29.248 0 0 1-20.864 8.694 29.318 29.318 0 0 1-20.064-7.912 29.232 29.232 0 0 1-21.666 9.572 29.3 29.3 0 0 1-20.61-8.458c-2.422 0.528-4.942 0.82-7.522 0.82-19.34 0-34.988-15.668-34.988-34.988s15.648-34.968 34.988-34.968c1.054 0 2.09 0.04 3.126 0.136 2.482-22.954 21.938-40.848 45.538-40.848z" fill="#FFFFFF" /><path d="M799.888 326.246s11.526-2.482 21.196-0.626c9.67 1.856 19.75 9.886 30.67 10.51 10.9 0.606 8.634-3.516 8.634-3.516s-6.994 1.036-8.85-4.924c-1.856-5.978 5.764-10.726 17.484-18.95 11.74-8.224 14.008-16.45 11.74-21.606 0 0-2.07 3.282-11.74 8.44s-16.664 14.612-24.282 21.392c-7.6 6.798-8.03 7.208-15.218 5.782-7.208-1.446-22.642-3.712-29.634 3.498zM177.228 220.734s11.546-2.482 21.196-0.626c9.69 1.856 19.75 9.886 30.67 10.51 10.9 0.606 8.634-3.516 8.634-3.516s-6.994 1.036-8.85-4.922c-1.836-5.978 5.782-10.726 17.504-18.93 11.722-8.244 13.988-16.468 11.722-21.626 0 0-2.052 3.302-11.722 8.44-9.67 5.158-16.664 14.612-24.282 21.392-7.618 6.798-8.03 7.208-15.238 5.782-7.188-1.448-22.64-3.714-29.634 3.496z"  /></svg>